<svg width="17" height="17" viewBox="0 0 17 17" fill="none" xmlns="http://www.w3.org/2000/svg">
    <path d="M15.5 9.37501C15.286 10.9148 14.5717 12.3416 13.4671 13.4355C12.3624 14.5293 10.9288 15.2297 9.38696 15.4287C7.84514 15.6276 6.28067 15.3141 4.93455 14.5364C3.58843 13.7588 2.53534 12.5601 1.9375 11.125M1.5 14.625V11.125H5M1.5 7.62501C1.71399 6.0852 2.42831 4.65847 3.53294 3.56457C4.63757 2.47068 6.07121 1.77032 7.61304 1.57137C9.15486 1.37243 10.7193 1.68594 12.0654 2.4636C13.4116 3.24127 14.4647 4.43996 15.0625 5.87501M15.5 2.37501V5.87501H12" stroke="#083F46" stroke-width="1.5" stroke-linecap="round" stroke-linejoin="round"/>
    </svg>
    