<svg width="19" height="19" viewBox="0 0 19 19" fill="none" xmlns="http://www.w3.org/2000/svg">
    <path d="M16.4958 6.925L12.4229 2.725L13.7646 1.325C14.1319 0.941667 14.5833 0.75 15.1187 0.75C15.6535 0.75 16.1045 0.941667 16.4719 1.325L17.8135 2.725C18.1809 3.10833 18.3726 3.571 18.3885 4.113C18.4045 4.65433 18.2288 5.11667 17.8615 5.5L16.4958 6.925ZM1.83333 19C1.56181 19 1.33436 18.904 1.151 18.712C0.967 18.5207 0.875 18.2833 0.875 18V15.175C0.875 15.0417 0.898958 14.9127 0.946875 14.788C0.994792 14.6627 1.06667 14.55 1.1625 14.45L11.0333 4.15L15.1063 8.4L5.23542 18.7C5.13958 18.8 5.03193 18.875 4.91246 18.925C4.79235 18.975 4.6684 19 4.54062 19H1.83333Z" fill="#083F46"/>
    </svg>
    